<svg xmlns="http://www.w3.org/2000/svg" viewBox="0 0 32 32" width="32" height="32" role="img" aria-label="Email.eu">
  <rect width="32" height="32" rx="7" fill="#0B0B0D"/>
  <g transform="translate(6 6.6) scale(1.111)" fill="#FAFAF7">
    <path d="M13.3594 3.375C13.3594 4.20833 13.0938 4.95833 12.5625 5.625C12.0417 6.28125 11.3229 6.85938 10.4062 7.35938C9.5 7.85938 8.46875 8.28646 7.3125 8.64062C6.16667 8.99479 4.96354 9.27604 3.70312 9.48438C3.70312 9.59896 3.70312 9.71875 3.70312 9.84375C3.70312 9.96875 3.70312 10.0938 3.70312 10.2188C3.70312 11.2812 3.84896 12.1302 4.14062 12.7656C4.43229 13.3906 4.81771 13.8438 5.29688 14.125C5.77604 14.4062 6.27604 14.5469 6.79688 14.5469C7.73438 14.5469 8.56771 14.3698 9.29688 14.0156C10.0365 13.651 10.7812 13.1302 11.5312 12.4531C11.5833 12.401 11.6354 12.3542 11.6875 12.3125C11.7396 12.2708 11.7969 12.2708 11.8594 12.3125C11.9635 12.3646 12.0729 12.4479 12.1875 12.5625C12.3021 12.6667 12.3906 12.7708 12.4531 12.875C12.474 12.9062 12.4896 12.9323 12.5 12.9531C12.5104 12.974 12.5156 12.9948 12.5156 13.0156C12.5156 13.0573 12.4948 13.1042 12.4531 13.1562C12.4219 13.1979 12.3958 13.2396 12.375 13.2812C11.625 14.1875 10.7344 14.9167 9.70312 15.4688C8.67188 16.0208 7.48438 16.2969 6.14062 16.2969C4.17188 16.2969 2.65625 15.6979 1.59375 14.5C0.53125 13.3021 0 11.7135 0 9.73438C0 8.35938 0.239583 7.07812 0.71875 5.89062C1.19792 4.70312 1.84896 3.67188 2.67188 2.79688C3.49479 1.91146 4.42708 1.22396 5.46875 0.734375C6.51042 0.244792 7.58854 0 8.70312 0C9.90104 0 10.8385 0.182292 11.5156 0.546875C12.1927 0.901042 12.6667 1.33854 12.9375 1.85938C13.2188 2.38021 13.3594 2.88542 13.3594 3.375ZM8.48438 1.26562C7.38021 1.26562 6.36979 1.88021 5.45312 3.10938C4.53646 4.33854 3.97396 6.0625 3.76562 8.28125C5.79688 7.85417 7.36458 7.21354 8.46875 6.35938C9.57292 5.50521 10.1146 4.32292 10.0938 2.8125C10.0833 2.32292 9.92188 1.94271 9.60938 1.67188C9.30729 1.40104 8.93229 1.26562 8.48438 1.26562ZM14.1754 14.5547C14.1754 14.1641 14.3154 13.832 14.5953 13.5586C14.8818 13.2786 15.2301 13.1387 15.6402 13.1387C16.0504 13.1387 16.3987 13.2786 16.6852 13.5586C16.9716 13.832 17.1148 14.1641 17.1148 14.5547C17.1148 14.9453 16.9716 15.2904 16.6852 15.5898C16.3987 15.8893 16.0504 16.0391 15.6402 16.0391C15.2301 16.0391 14.8818 15.8893 14.5953 15.5898C14.3154 15.2904 14.1754 14.9453 14.1754 14.5547Z"/>
  </g>
</svg>
