<svg xmlns="http://www.w3.org/2000/svg" viewBox="0 0 320 320" role="img" aria-labelledby="title"><title id="title">Gamesplanet logo</title><rect width="320" height="320" rx="64" fill="#0f172a"/><circle cx="160" cy="160" r="92" fill="#2563eb"/><path d="M102 160c0-38 29-66 69-66 23 0 42 8 57 23l-28 27c-8-8-17-12-29-12-17 0-30 12-30 29 0 18 13 30 31 30 10 0 18-3 25-8v-12h-32v-31h68v62c-16 17-38 25-63 25-40 0-68-29-68-67z" fill="#f8fafc"/><path d="M85 246c37 27 108 27 150 0-28 40-122 40-150 0z" fill="#38bdf8"/></svg>
