<?xml version="1.0" encoding="UTF-8" standalone="no"?>
<!-- Generator: Adobe Illustrator 23.0.6, SVG Export Plug-In . SVG Version: 6.00 Build 0)  -->

<svg
   version="1.1"
   id="Mullvad_VPN_Logo_Positive"
   x="0px"
   y="0px"
   viewBox="0 0 1267.2 252.60001"
   xml:space="preserve"
   sodipodi:docname="Mullvad_logo.svg"
   width="1267.2"
   height="252.60001"
   inkscape:version="1.4.2 (ebf0e940d0, 2025-05-08)"
   xmlns:inkscape="http://www.inkscape.org/namespaces/inkscape"
   xmlns:sodipodi="http://sodipodi.sourceforge.net/DTD/sodipodi-0.dtd"
   xmlns="http://www.w3.org/2000/svg"
   xmlns:svg="http://www.w3.org/2000/svg"><defs
   id="defs12" /><sodipodi:namedview
   id="namedview12"
   pagecolor="#ffffff"
   bordercolor="#000000"
   borderopacity="0.25"
   inkscape:showpageshadow="2"
   inkscape:pageopacity="0.0"
   inkscape:pagecheckerboard="0"
   inkscape:deskcolor="#d1d1d1"
   showgrid="false"
   inkscape:zoom="0.94614786"
   inkscape:cx="628.86577"
   inkscape:cy="126.30161"
   inkscape:window-width="1920"
   inkscape:window-height="1014"
   inkscape:window-x="0"
   inkscape:window-y="0"
   inkscape:window-maximized="1"
   inkscape:current-layer="g12" />
<style
   type="text/css"
   id="style1">
	.st0{fill-rule:evenodd;clip-rule:evenodd;fill:#192E45;}
	.st1{fill-rule:evenodd;clip-rule:evenodd;fill:#D0933A;}
	.st2{fill-rule:evenodd;clip-rule:evenodd;fill:#FFCC86;}
	.st3{fill-rule:evenodd;clip-rule:evenodd;fill:#FDD321;}
	.st4{fill:#FFFFFF;}
	.st5{fill:#1D2A3A;}
	.st6{fill:#192E45;}
</style>
<g
   id="Logo"
   transform="translate(-73.7,-73.7)">
	<path
   id="bg"
   class="st0"
   d="m 73.7,200 c 0,69.8 56.6,126.3 126.3,126.3 69.7,0 126.3,-56.5 126.3,-126.3 C 326.3,130.2 269.8,73.7 200,73.7 130.2,73.7 73.7,130.2 73.7,200 v 0 z" />
	<path
   id="Mullvad_Fur"
   class="st1"
   d="m 90.6,184.9 9.6,-13.4 c 0,0.1 -0.6,19.3 -0.6,19.3 l 2.7,-14.5 c 8,16.2 27.6,38.6 45.5,50.6 1.9,1.3 3.5,2.7 4.6,4.1 2.3,0.9 4.6,1.4 6.9,1.8 1.2,0.2 2.5,0.3 3.7,0.4 1.2,0.1 2.5,0.1 3.7,0.1 1.2,0 2.4,-0.1 3.6,-0.2 1.2,-0.1 2.4,-0.3 3.6,-0.5 1.2,-0.2 2.4,-0.4 3.5,-0.8 1.2,-0.3 2.3,-0.6 3.5,-1 1.1,-0.3 2.3,-0.8 3.4,-1.2 1.1,-0.5 2.2,-0.9 3.3,-1.5 1.1,-0.6 2.2,-1.1 3.2,-1.7 1.1,-0.5 2.1,-1.2 3.2,-1.8 1.1,-0.6 2.1,-1.3 3.2,-1.9 1.1,-0.6 2.1,-1.3 3.1,-1.9 1,-0.7 2.1,-1.3 3.1,-2 1,-0.7 2.1,-1.3 3.2,-2 l 1,-0.6 0.5,0.3 7.2,4.8 -7.3,-1.9 c -0.7,0.8 -1.4,1.6 -2.2,2.4 -0.9,0.9 -1.9,1.8 -2.8,2.7 -1,0.8 -2,1.7 -3.1,2.4 -1.1,0.8 -2.1,1.5 -3.3,2.2 -2.2,1.4 -4.6,2.6 -7.1,3.6 -1.2,0.5 -2.5,1 -3.7,1.4 -1.3,0.4 -2.5,0.8 -3.8,1.1 -1.3,0.3 -2.6,0.6 -3.9,0.8 -1.3,0.2 -2.6,0.3 -3.9,0.5 -2.6,0.1 -5.3,0.1 -7.9,-0.3 -1.3,-0.2 -2.6,-0.4 -3.9,-0.7 -1.3,-0.3 -2.5,-0.7 -3.7,-1.1 -2.1,-0.8 -4.2,-1.8 -6.1,-3 0,0 -6.9,1 -4.1,6.2 2.8,5.2 7,4.7 5,10.8 -1.4,3.3 -3.4,6.5 -5.6,9.5 -4.6,6.2 -11.8,11.7 -11.1,15 32.7,40.3 106.4,34.7 134.4,-1.3 -0.4,-5.2 -8.6,-7.7 -14.3,-20.4 1.6,0.5 4,1.2 4,1.1 0,-0.1 -6.8,-11.1 -7.1,-12.2 l 4.4,0.3 c 0,0 -5.8,-7.2 -6,-7.9 l 5.9,-0.8 c 0,0 -7.4,-8.5 -7.5,-9.2 l 7.5,1.2 -8.2,-9.9 h 3.9 l -4.6,-6.7 c -0.8,-0.3 -1.6,-0.5 -2.4,-0.7 -1,-0.3 -2,-0.6 -3,-0.9 -11.2,-3.5 -21.8,-6.7 -32,-13.1 -14.3,-8.9 -27.1,-19.8 -36.7,-28.3 l -19.3,-9.4 c -18.5,-1.4 -35.9,-0.9 -46.5,1.2 l 6.8,-11.6 -10.4,12.5 c -0.7,-0.2 -0.9,-0.6 -0.9,-0.6 l 0.7,-15.4 -3.3,13.9 c -1,-0.5 -2.2,-0.7 -3.4,-0.7 -4.6,0 -8.3,3.7 -8.3,8.3 0,4.2 3.1,7.7 7.2,8.2 l -7.1,14.4 v 0 z" />
	<path
   id="Mullvad_Nose"
   class="st2"
   d="m 102.2,154.5 c -1,-0.4 -2.2,-0.7 -3.3,-0.7 -4.6,0 -8.3,3.7 -8.3,8.3 0,4 2.9,7.4 6.7,8.2 0.1,0 0.1,0 0.2,0 2.5,-0.8 7.5,-7.5 6.7,-11.7 -0.3,-1.5 -1,-2.9 -2,-4.1 v 0 z" />
	<path
   id="Mullvad_Helmet"
   class="st3"
   d="m 175.1,143.8 c -1.5,-4.1 -1.1,-9.4 1,-14.4 3,-6.9 8.7,-11.5 14.1,-11.5 1.1,0 2.1,0.2 3.1,0.6 3.1,-2.8 6.7,-5.1 10.7,-6.7 22.1,-8.8 54.4,6.9 62.7,28.6 4,10.5 2.8,22 -0.6,32.5 -2.8,8.6 -13,21 -9.2,30.4 -1.5,-0.4 -33.1,-10.2 -41.9,-15.8 -14.1,-8.8 -26.8,-19.6 -36.3,-28 l -0.3,-0.3 -32.1,-15.2 c -0.4,-0.2 -0.8,-0.4 -1.1,-0.6 4.6,0 22.1,2.1 29.9,0.4" />
	<g
   id="Helmet_Lamp">
		<path
   class="st4"
   d="m 184.6,147.4 c -0.9,0 -1.7,-0.2 -2.3,-0.5 -1.6,-0.7 -2.8,-2 -3.6,-4 -1.4,-3.4 -1,-8.1 0.9,-12.5 2.5,-5.7 7.2,-9.7 11.5,-9.7 0.8,0 1.6,0.2 2.4,0.5 2.1,0.9 3.6,3 4.1,6 0.6,3.2 0.1,6.9 -1.5,10.4 -2.5,5.7 -7.3,9.8 -11.5,9.8 z"
   id="path1" />
		<g
   id="g2">
			<path
   class="st5"
   d="m 191,122.3 c 0.6,0 1.2,0.1 1.8,0.4 1.6,0.7 2.8,2.5 3.2,4.9 0.5,2.9 0.1,6.3 -1.4,9.5 -2.2,5.1 -6.5,8.8 -10.1,8.8 -0.6,0 -1.2,-0.1 -1.7,-0.3 v 0 0 c -1.5,-0.6 -2.3,-2 -2.7,-3.1 -1.2,-3 -0.9,-7.4 0.8,-11.4 2.3,-5.1 6.5,-8.8 10.1,-8.8 m 0,-3 c -4.8,0 -10.1,4.4 -12.9,10.7 -2.1,4.7 -2.4,9.8 -0.9,13.7 0.9,2.3 2.4,3.9 4.3,4.8 0.9,0.4 1.9,0.6 3,0.6 4.8,0 10.1,-4.4 12.8,-10.7 1.7,-3.8 2.2,-7.8 1.6,-11.3 -0.6,-3.5 -2.4,-6 -5,-7.1 -0.8,-0.5 -1.8,-0.7 -2.9,-0.7 z"
   id="path2" />
		</g>
	</g>
</g>
<g
   id="g12"
   transform="translate(-73.7,-73.7)">
	<path
   class="st6"
   d="m 381.4,144.7 c 0,-0.9 0.6,-1.5 1.5,-1.5 h 17.8 c 1.2,0 2,0.4 2.4,1.5 l 25.8,58.2 h 0.6 l 25.3,-58.2 c 0.4,-1 1.2,-1.5 2.4,-1.5 h 17.5 c 0.9,0 1.5,0.6 1.5,1.5 v 99 c 0,0.9 -0.6,1.5 -1.5,1.5 h -17 c -0.9,0 -1.5,-0.6 -1.5,-1.5 v -57.4 h -0.6 l -18.9,43 c -0.6,1.4 -1.5,2 -2.8,2 h -10.3 c -1.3,0 -2.2,-0.6 -2.8,-2 l -18.9,-43 h -0.6 v 57.4 c 0,0.9 -0.6,1.5 -1.5,1.5 h -16.9 c -0.9,0 -1.5,-0.6 -1.5,-1.5 z"
   id="path3" />
	<path
   class="st6"
   d="m 498.4,207.7 v -63 c 0,-0.9 0.6,-1.5 1.5,-1.5 h 19 c 0.9,0 1.5,0.6 1.5,1.5 v 63.6 c 0,12.1 6.8,19 17.1,19 10.2,0 16.9,-6.9 16.9,-19 v -63.6 c 0,-0.9 0.6,-1.5 1.5,-1.5 h 19 c 0.9,0 1.5,0.6 1.5,1.5 v 63 c 0,25.3 -16.2,39.1 -39,39.1 -22.8,0 -39,-13.8 -39,-39.1 z"
   id="path4" />
	<path
   class="st6"
   d="m 598.6,144.7 c 0,-0.9 0.6,-1.5 1.5,-1.5 h 19 c 0.9,0 1.5,0.6 1.5,1.5 v 79.9 c 0,0.6 0.3,0.9 0.9,0.9 h 45 c 0.9,0 1.5,0.6 1.5,1.5 v 16.6 c 0,0.9 -0.6,1.5 -1.5,1.5 h -66.4 c -0.9,0 -1.5,-0.6 -1.5,-1.5 z"
   id="path5" />
	<path
   class="st6"
   d="m 684.1,144.7 c 0,-0.9 0.6,-1.5 1.5,-1.5 h 19 c 0.9,0 1.5,0.6 1.5,1.5 v 79.9 c 0,0.6 0.3,0.9 0.9,0.9 h 45 c 0.9,0 1.5,0.6 1.5,1.5 v 16.6 c 0,0.9 -0.6,1.5 -1.5,1.5 h -66.4 c -0.9,0 -1.5,-0.6 -1.5,-1.5 z"
   id="path6" />
	<path
   class="st6"
   d="m 785.1,245.1 c -1,0 -1.6,-0.6 -1.9,-1.5 l -32.4,-98.8 c -0.3,-1.1 0.3,-1.6 1.3,-1.6 h 19.5 c 1,0 1.7,0.4 2,1.5 l 20.4,66.9 h 0.4 l 19.8,-66.9 c 0.3,-1 0.9,-1.5 1.9,-1.5 h 19.3 c 0.9,0 1.5,0.6 1.2,1.6 l -32.4,98.8 c -0.3,0.9 -0.9,1.5 -1.8,1.5 z"
   id="path7" />
	<path
   class="st6"
   d="m 872.5,144.7 c 0.3,-0.9 0.9,-1.5 2,-1.5 h 18.9 c 1,0 1.6,0.6 1.9,1.5 l 34.5,99 c 0.3,0.9 0,1.5 -1,1.5 h -19.5 c -1,0 -1.7,-0.5 -2,-1.5 l -5.8,-17.8 h -35.7 l -5.7,17.8 c -0.3,1 -0.9,1.5 -2,1.5 h -19.6 c -1,0 -1.3,-0.6 -1,-1.5 z m 23,62.4 -11.5,-35.7 h -0.4 l -11.5,35.7 z"
   id="path8" />
	<path
   class="st6"
   d="m 944.7,144.7 c 0,-0.9 0.6,-1.5 1.5,-1.5 h 37.9 c 17.8,0 30.3,7.6 35.2,22.9 1.8,5.7 2.7,11.4 2.7,28 0,16.6 -0.9,22.3 -2.7,28 -4.9,15.3 -17.4,22.9 -35.2,22.9 h -37.9 c -0.9,0 -1.5,-0.6 -1.5,-1.5 z m 22.9,80.8 h 11.5 c 10.2,0 16.3,-3 18.9,-11.2 1,-3 1.7,-6.9 1.7,-20.1 0,-13.2 -0.6,-17.1 -1.7,-20.1 -2.5,-8.2 -8.7,-11.2 -18.9,-11.2 h -11.5 c -0.6,0 -0.9,0.3 -0.9,0.9 v 60.9 c 0,0.5 0.3,0.8 0.9,0.8 z"
   id="path9" />
	<path
   class="st6"
   d="m 1102.5,245.1 c -1.1,0 -1.7,-0.6 -2,-1.5 l -32.4,-98.8 c -0.3,-1.1 0.3,-1.6 1.3,-1.6 h 19.5 c 1,0 1.7,0.4 2,1.5 l 20.4,66.9 h 0.4 l 19.8,-66.9 c 0.3,-1 0.9,-1.5 1.9,-1.5 h 19.3 c 0.9,0 1.5,0.6 1.2,1.6 l -32.4,98.8 c -0.3,0.9 -0.9,1.5 -1.8,1.5 z"
   id="path10" />
	<path
   class="st6"
   d="m 1170,245.1 c -0.9,0 -1.5,-0.6 -1.5,-1.5 v -99 c 0,-0.9 0.6,-1.5 1.5,-1.5 h 39.6 c 22.2,0 35.5,13.3 35.5,32.8 0,19.2 -13.5,32.7 -35.5,32.7 h -18.1 c -0.6,0 -0.9,0.3 -0.9,0.9 v 34 c 0,0.9 -0.6,1.5 -1.5,1.5 H 1170 Z m 53.1,-69.1 c 0,-8.2 -5.5,-13.8 -14.8,-13.8 h -16.8 c -0.6,0 -0.9,0.3 -0.9,0.9 v 25.6 c 0,0.6 0.3,0.9 0.9,0.9 h 16.8 c 9.2,0.1 14.8,-5.3 14.8,-13.6 z"
   id="path11" />
	<path
   class="st6"
   d="m 1262.2,144.7 c 0,-0.9 0.6,-1.5 1.5,-1.5 h 18 c 1,0 2,0.4 2.5,1.5 l 36,64.2 h 0.8 v -64.2 c 0,-0.9 0.6,-1.5 1.5,-1.5 h 16.9 c 0.9,0 1.5,0.6 1.5,1.5 v 99 c 0,0.9 -0.6,1.5 -1.5,1.5 h -17.8 c -1.2,0 -2,-0.5 -2.5,-1.5 l -36.1,-64 h -0.8 v 64 c 0,0.9 -0.6,1.5 -1.5,1.5 h -16.9 c -0.9,0 -1.5,-0.6 -1.5,-1.5 v -99 z"
   id="path12" />
</g>
</svg>
