<?xml version="1.0" encoding="UTF-8"?>
<svg width="168.5" height="48.713" version="1.1" viewBox="0 0 168.5 48.713" xml:space="preserve" xmlns="http://www.w3.org/2000/svg" xmlns:cc="http://creativecommons.org/ns#" xmlns:dc="http://purl.org/dc/elements/1.1/" xmlns:rdf="http://www.w3.org/1999/02/22-rdf-syntax-ns#"><title>Nitrokey</title><metadata><rdf:RDF><cc:Work rdf:about=""><dc:format>image/svg+xml</dc:format><dc:type rdf:resource="http://purl.org/dc/dcmitype/StillImage"/><dc:title>Nitrokey</dc:title></cc:Work></rdf:RDF></metadata><g transform="matrix(.34505 0 0 -.34505 0 48.713)"><g transform="scale(.1)"><g fill="#181818"><path d="m4136.9 236.35c7.39-10.372 11.08-23.422 11.08-39.114v-8.09h-87.72c0.35 17.704 4.78 32.571 13.27 44.641 8.5 12.07 19.37 18.109 32.61 18.109 13.12 0 23.38-5.187 30.76-15.546zm5.01-156.66c9.08 4.3789 16.5 10.238 22.24 17.598l-8.61 14.883c-5.39-6.75-11.87-11.942-19.43-15.613-7.56-3.668-16.55-5.5-26.98-5.5-15 0-26.89 6.1328-35.68 18.351-8.79 12.238-13.19 27.578-13.19 46.02v15.789h108.81v20.84c0 23.953-5.51 43-16.52 57.203-11.02 14.179-26.49 21.277-46.41 21.277-18.4 0-34.13-7.937-47.2-23.828-13.06-15.879-19.59-35.832-19.59-59.84v-31.641c0-23.921 6.5-43.582 19.51-58.992 13-15.406 29.76-23.098 50.27-23.098 12.77 0 23.7 2.1797 32.78 6.5508zm-151.78-2.8594v172.26h36.02v17.93h-36.02v27.421c0 13.25 2.36 23.43 7.11 30.579 4.74 7.152 11.75 10.73 21 10.73 2.93 0 5.6-0.199 8-0.609 2.4-0.411 4.78-0.981 7.12-1.672l2.65 17.75c-3.41 1.062-6.78 1.91-10.12 2.543-3.34 0.648-6.65 0.976-9.92 0.976-14.78 0-26.29-5.25-34.54-15.738-8.27-10.48-12.4-25.34-12.4-44.559v-27.421h-25.67v-17.93h25.67v-172.26zm-76.66 274.22h-21.27v-29.891h21.27zm0-84.031h-21.27v-190.19h21.27zm-66.1 84.031h-21.27v-274.22h21.27zm-135.02 0h-21.27v-274.22h21.27zm-158.56-249.26c-5.39 6.441-8.09 14.762-8.09 24.949 0 11.961 4.31 22 12.92 30.153 8.62 8.14 20.13 12.218 34.55 12.218h33.75v-41.14c-3.76-10.43-10.17-19-19.25-25.739-9.09-6.7417-19.49-10.121-31.2-10.121-9.73 0-17.29 3.2304-22.68 9.6796zm98.26-24.957c-1.51 6.0782-2.58 12.297-3.15 18.617-0.6 6.3398-0.89 12.891-0.89 19.699v93.34c0 19.91-5.38 35.242-16.16 45.961-10.8 10.731-24.97 16.09-42.54 16.09-17.83 0-32.44-5.609-43.87-16.801-11.43-11.179-16.85-23.929-16.26-38.226l0.35-1.051 19.69-0.172c0 10.543 3.66 19.441 10.99 26.723 7.32 7.258 16.66 10.886 28.03 10.886 12.19 0 21.68-3.796 28.48-11.429 6.79-7.617 10.2-18.16 10.2-31.637v-23.383h-33.23c-21.21 0-38.03-5.23-50.45-15.719-12.42-10.492-18.63-24.582-18.63-42.281 0-16.648 4.29-29.847 12.83-39.64 8.57-9.7773 20.68-14.668 36.39-14.668 11.25 0 21.47 3.0703 30.67 9.2188 9.2 6.1601 16.67 13.969 22.42 23.461 0-4.332 0.26-8.6012 0.79-12.832 0.52-4.2188 1.31-9.6094 2.37-16.156zm-207.78 238.71v-48.519h-26.37v-17.93h26.37v-123.28c0-18.25 3.19-31.61 9.58-40.04s15.21-12.629 26.46-12.629c4.57 0 9.11 0.4297 13.63 1.3086 4.5 0.8828 8.16 2.0313 10.98 3.4297l-2.82 16.172c-3.4-0.711-6.44-1.2305-9.14-1.582-2.69-0.3594-5.45-0.5274-8.26-0.5274-5.74 0-10.37 2.5703-13.89 7.7305-3.51 5.1371-5.27 13.867-5.27 26.16v123.26h33.05v17.93h-33.05v48.519zm-52.56 35.512h-21.27v-29.891h21.27zm0-84.031h-21.27v-190.19h21.27zm-172.1-85.782c0 20.852 3.75 37.793 11.25 50.801 7.5 13 18.69 19.512 33.57 19.512 10.43 0 19.09-3.129 25.93-9.403 6.86-6.277 12.29-14.437 16.26-24.519v-94.231c-4.1-9.839-9.67-17.546-16.7-23.109-7.03-5.5585-15.64-8.3476-25.84-8.3476-14.88 0-26 5.75-33.4 17.219-7.38 11.488-11.07 26.852-11.07 46.07zm-21.27-26.008c0-24.859 5.42-44.742 16.26-59.679 10.84-14.941 25.81-22.41 44.91-22.41 10.31 0 19.39 2.2696 27.25 6.8477 7.85 4.5703 14.47 11.133 19.86 19.684v-23.024c0-18.75-3.63-32.988-10.9-42.707-7.27-9.7422-18.45-14.59-33.57-14.59-7.5 0-14.77 1.0195-21.8 3.0703-7.03 2.0469-13.42 4.8867-19.16 8.5195l-5.8-18.453c6.68-3.75 14.33-6.7696 22.94-9.0469 8.61-2.293 16.67-3.4414 24.17-3.4414 20.86 0 36.97 6.6797 48.34 20.039 11.36 13.359 17.05 32.242 17.05 56.609v190.37h-17.93l-2.11-26.551c-5.27 9.613-11.92 17.019-19.95 22.25-8.03 5.203-17.37 7.82-28.04 7.82-19.22 0-34.26-8.148-45.17-24.437-10.9-16.293-16.35-37.911-16.35-64.864zm-35.87 195.82h-21.27v-29.891h21.27zm0-84.031h-21.27v-190.19h21.27zm-171.91-96.848c0 24.25 3.62 43.879 10.89 58.879s18.34 22.5 33.22 22.5c10.43 0 19.1-3.199 26.02-9.582 6.91-6.379 12.3-14.668 16.17-24.879v-93.149c-4.1-10.089-9.64-17.929-16.61-23.562-6.97-5.6173-15.62-8.4376-25.92-8.4376-14.77 0-25.76 6.707-32.97 20.129-7.2 13.418-10.8 31.551-10.8 54.41zm-21.45-3.692c0-28.359 5.36-51.019 16.08-67.941 10.72-16.949 25.58-25.398 44.57-25.398 10.65 0 19.98 2.4297 27.94 7.2813 7.97 4.8672 14.59 11.879 19.86 21.019l1.77-24.609h18.62v274.22h-21.09v-108.81c-5.27 9.012-11.81 15.992-19.6 20.91-7.79 4.934-16.9 7.391-27.33 7.391-19.22 0-34.17-9.109-44.83-27.34-10.66-18.23-15.99-42.558-15.99-73.027zm-84.05 102.12c-1.29 0.468-3.04 0.898-5.27 1.32-2.23 0.406-4.45 0.617-6.68 0.617-9.84 0-18.43-3.078-25.75-9.23-7.33-6.149-13.21-14.739-17.67-25.75l-2.45 31.461h-18.64v-190.19h21.09v135c3.05 11.59 7.8 20.699 14.25 27.316 6.44 6.622 14.58 9.942 24.43 9.942l13.89-1.051zm-135.88-191.77h18.98v190.19h-21.09v-138.51c-3.28-11.383-8.7-20.313-16.26-26.821-7.56-6.4918-17.38-9.7496-29.43-9.7496-11.5 0-20.26 4.9492-26.29 14.86-6.04 9.89-9.06 26.39-9.06 49.469v110.75h-21.09v-110.39c0-28.59 4.72-49.66 14.15-63.188 9.43-13.543 22.59-20.301 39.46-20.301 11.14 0 20.86 2.8985 29.18 8.6992 8.32 5.8008 15 14.02 20.04 24.691zm-254.36 108.83c0 18.68 4.21 34.379 12.65 47.129s20.45 19.109 36.04 19.109c15.47 0 27.48-6.359 36.03-19.109 8.57-12.75 12.83-28.449 12.83-47.129v-28c0-18.922-4.26-34.75-12.83-47.48-8.55-12.75-20.51-19.121-35.86-19.121-15.7 0-27.77 6.3398-36.21 19.019-8.44 12.692-12.65 28.543-12.65 47.582zm-21.27-27.801c0-24.961 6.32-45.328 18.98-61.078 12.66-15.762 29.71-23.641 51.15-23.641 21.33 0 38.32 7.8789 50.98 23.641 12.66 15.75 18.98 36.117 18.98 61.078v27.95c0 24.73-6.35 45.023-19.07 60.902-12.71 15.891-29.74 23.828-51.06 23.828-21.33 0-38.32-7.98-50.98-23.91-12.66-15.938-18.98-36.219-18.98-60.82zm-126.05 109.16h-23.37l60.11-187.73-7.91-25.141c-2.69-9.8398-6.27-18.098-10.72-24.777-4.46-6.6797-10.26-10.02-17.4-10.02-1.29 0-3.28 0.1367-5.98 0.4375-2.7 0.289-4.63 0.5507-5.8 0.7929l-2.29-18.113c1.53-0.46875 3.87-0.98828 7.04-1.5898 3.16-0.57812 5.8-0.87891 7.91-0.87891 12.53 0 22.17 4.5703 28.91 13.719 6.74 9.1406 12.16 20.031 16.26 32.703l67.85 220.6h-23.55l-45-156.98h-1.06l-4.92 19.16zm-136.6-30.668c7.39-10.372 11.08-23.422 11.08-39.114v-8.09h-87.72c0.35 17.704 4.78 32.571 13.27 44.641 8.5 12.07 19.37 18.109 32.61 18.109 13.12 0 23.38-5.187 30.76-15.546zm5.01-156.66c9.08 4.3789 16.5 10.238 22.24 17.598l-8.61 14.883c-5.4-6.75-11.87-11.942-19.43-15.613-7.56-3.668-16.55-5.5-26.98-5.5-15 0-26.89 6.1328-35.68 18.351-8.79 12.238-13.19 27.578-13.19 46.02v15.789h108.81v20.84c0 23.953-5.51 43-16.52 57.203-11.02 14.179-26.49 21.277-46.41 21.277-18.4 0-34.13-7.937-47.2-23.828-13.06-15.879-19.6-35.832-19.6-59.84v-31.641c0-23.921 6.51-43.582 19.52-58.992 13-15.406 29.76-23.098 50.27-23.098 12.77 0 23.7 2.1797 32.78 6.5508zm-112.77 188.91c-1.29 0.468-3.05 0.898-5.27 1.32-2.23 0.406-4.46 0.617-6.68 0.617-9.84 0-18.43-3.078-25.75-9.23-7.33-6.149-13.22-14.739-17.67-25.75l-2.46 31.461h-18.63v-190.19h21.09v135c3.05 11.59 7.79 20.699 14.24 27.316 6.44 6.622 14.59 9.942 24.43 9.942l13.89-1.051zm-135.88-191.77h18.98v190.19h-21.09v-138.51c-3.28-11.383-8.7-20.313-16.26-26.821-7.56-6.4918-17.38-9.7496-29.45-9.7496-11.48 0-20.24 4.9492-26.28 14.86-6.03 9.89-9.05 26.39-9.05 49.469v110.75h-21.09v-110.39c0-28.59 4.71-49.66 14.15-63.188 9.43-13.543 22.59-20.301 39.46-20.301 11.13 0 20.86 2.8985 29.18 8.6992 8.32 5.8008 15 14.02 20.04 24.691zm-231.16 32.719c-7.5 12.34-11.25 28.078-11.25 47.23v29.598c0 18.891 3.75 34.543 11.25 46.93 7.5 12.39 19.45 18.589 35.86 18.589 11.83 0 21.71-4.476 29.62-13.437 7.91-8.973 11.86-21.012 11.86-36.129h18.81l0.35 0.879c0.35 20.148-5.24 36.41-16.79 48.777-11.54 12.371-26.16 18.551-43.85 18.551-21.92 0-38.76-7.879-50.54-23.648-11.78-15.762-17.67-35.879-17.67-60.379v-29.532c0-24.609 5.89-44.73 17.67-60.378 11.78-15.641 28.62-23.461 50.54-23.461 16.4 0 30.7 5.9102 42.89 17.738 12.18 11.851 18.1 26.551 17.75 44.121l-0.53 1.059h-18.63c0-14.059-4.16-25.059-12.48-33.028-8.32-7.9919-17.99-11.972-29-11.972-16.41 0-28.36 6.1719-35.86 18.492zm-86.14 126.8c7.38-10.372 11.07-23.422 11.07-39.114v-8.09h-87.71c0.35 17.704 4.77 32.571 13.27 44.641 8.49 12.07 19.36 18.109 32.61 18.109 13.12 0 23.37-5.187 30.76-15.546zm5.01-156.66c9.08 4.3789 16.49 10.238 22.23 17.598l-8.61 14.883c-5.39-6.75-11.86-11.942-19.42-15.613-7.56-3.668-16.56-5.5-26.99-5.5-15 0-26.89 6.1328-35.68 18.351-8.79 12.238-13.18 27.578-13.18 46.02v15.789h108.81v20.84c0 23.953-5.51 43-16.53 57.203-11.01 14.179-26.48 21.277-46.4 21.277-18.4 0-34.14-7.937-47.2-23.828-13.07-15.879-19.6-35.832-19.6-59.84v-31.641c0-23.921 6.5-43.582 19.51-58.992 13.01-15.406 29.77-23.098 50.27-23.098 12.78 0 23.7 2.1797 32.79 6.5508zm-157.77 20.387c-6.8-6.0194-16.12-9.0194-27.95-9.0194-10.9 0-20.39 3.0898-28.48 9.2734-8.09 6.18-12.48 16.109-13.18 29.77h-19.69l-0.35-1.063c-0.59-15.187 4.66-28.309 15.73-39.348 11.07-11.043 26.4-16.551 45.97-16.551 17.81 0 32.14 4.6211 42.98 13.879 10.83 9.25 16.26 21.45 16.26 36.562 0 13.719-4.69 25.047-14.07 34.02-9.37 8.957-23.55 17.25-42.54 24.867-16.17 7.742-26.71 14.152-31.64 19.242-4.92 5.109-7.38 11.871-7.38 20.309 0 7.96 3.1 14.941 9.32 20.91 6.21 5.992 15.23 8.968 27.07 8.968 11.6 0 20.8-3.796 27.59-11.429 6.8-7.617 10.2-16.571 10.2-26.887h19.86l0.36 1.047c0.46 15.953-4.58 29.25-15.12 39.91-10.55 10.672-24.85 16-42.89 16-17 0-30.82-4.809-41.49-14.418-10.66-9.609-15.99-21.211-15.99-34.812 0-13.36 4.48-24.161 13.44-32.418 8.97-8.262 23.12-16.391 42.46-24.352 15.11-6.937 25.51-13.57 31.2-19.867 5.68-6.313 8.52-13.813 8.52-22.524 0-8.707-3.4-16.078-10.19-22.07"/><path d="m2756.2 970.38h-174.44v-521.23h177.57v372.22l65.82-0.347h59.53v149.22h-15.67c-30.65 0-112.81 0.145-112.81 0.145"/><path d="m3181.3 595.38c0-15.324-8.72-22.981-26.11-22.981h-28.21c-17.41 0-26.11 7.657-26.11 22.981v228.75c0 15.312 8.7 22.984 26.11 22.984h28.21c17.39 0 26.11-7.672 26.11-22.984zm26.11 374.99h-132.65c-52.92 0-90.88-11.145-113.86-33.418-22.98-22.297-34.47-54.32-34.47-96.098v-262.19c0-41.785 11.49-73.817 34.47-96.094 22.98-22.305 60.94-33.437 113.86-33.437h132.65c52.92 0 90.88 11.132 113.86 33.437 22.98 22.277 34.47 54.309 34.47 96.094v262.19c0 41.778-11.49 73.801-34.47 96.098-22.98 22.273-60.94 33.418-113.86 33.418"/><path d="m1972.7 1022.6h183.84v125.34h-183.84v-125.34"/><path d="m1975.8 449.14h177.57v521.23h-177.57v-521.23"/><path d="m1725.3 774.71-151.58 373.24h-159v-698.6h169.6v366.71l151.58-366.71h159v698.6h-169.6v-373.24"/><path d="m4704.8 970.38-56.4-317.54-70.81 317.54h-178.84l165.77-539.23-67.67-256.77h161.09l225.48 796h-178.62"/><path d="m4207.4 759.38h-98.19v65.812c0 15.309 8.7 22.977 26.12 22.977h45.96c17.4 0 26.11-7.668 26.11-22.977zm14.62 211h-127.43c-102.36 0-153.55-43.176-153.55-129.52v-262.19c0-86.356 51.19-129.53 153.55-129.53h127.43c102.37 0 153.56 43.175 153.56 129.53v47.004h-168.18v-29.25c0-16.707 0.24-25.078 0.24-25.078h-72.31c-17.42 0-26.12 7.668-26.12 22.988v68.937h266.37v177.59c0 86.34-51.19 129.52-153.56 129.52"/><path d="m2437.4 1146h-177.57v-177.04h-57.45v-130.57h57.45v-390.47s51.18-0.196 153.55-0.196h88.78v130.57l-64.76 0.019v260.08h65.81v130.57h-65.81v177.04"/><path d="m3709.9 970.38-98.19-237.11v414.68h-177.57v-698.81h177.57v243.38l97.14-243.38h184.89l-111.77 264.28 111.77 256.95h-183.84"/></g><g fill="#cc1b3f"><path d="m723.69 562.4-286.81-165.57c-19.438-11.226-44.524-4.508-55.746 14.934l-153.4 265.68c-11.214 19.446-4.5 44.547 14.942 55.766l286.81 165.59 194.21-336.4"/><path d="m860.6 741.06-28.434-16.571c-4.656-2.707-10.68-1.105-13.398 3.543l-24.067 41.328c-2.723 4.668-1.133 10.692 3.527 13.399l28.43 16.558c4.656 2.711 10.684 1.125 13.399-3.539l24.082-41.328c2.711-4.66 1.125-10.683-3.539-13.39zm-142.18 159.28c-2.715 4.66-1.129 10.695 3.523 13.398l28.442 16.563c4.656 2.711 10.676 1.125 13.394-3.539l24.075-41.344c2.711-4.648 1.117-10.676-3.532-13.387l-28.441-16.558c-4.649-2.711-10.68-1.117-13.391 3.531zm-143.6-30.098 145.33-251.71 287.57 166.03-145.32 251.72-287.58-166.03"/><path d="m616.64 1301.8c-1.27 0-2.532-0.27-3.758-0.78l-494.9-209.12c-4.652-1.98-7.98-7.53-7.98-13.45v-434.88c0-2.109 0.371-4.132 1.07-5.851 24.961-62.422 165.58-378.31 501.82-512.88 2.441-0.969 5.031-0.981 7.531 0.012 336.2 134.54 476.82 450.44 501.59 512.41 0.81 2.07 1.27 4.266 1.27 6.308v434.88c0 5.95-3.19 11.45-7.77 13.37l-495.17 209.22c-1.164 0.49-2.434 0.76-3.703 0.76zm0-1287.7c-15.313 0-30.313 2.8985-44.598 8.5977-377.92 151.24-535.21 504.45-562.91 573.72-6.0039 14.598-9.1328 30.613-9.1328 47.148v434.88c0 50.31 29.465 95.35 75.047 114.73l495.09 209.19c29.73 12.51 63.32 12.5 92.957 0.03l495.02-209.17c45.58-19.04 75.17-64.13 75.17-114.78v-434.88c0-15.898-3.04-31.691-9.03-46.894-27.81-69.523-185.11-422.73-563-573.96-14.309-5.7109-29.309-8.6094-44.609-8.6094"/></g></g></g></svg>
