<svg xmlns="http://www.w3.org/2000/svg" viewBox="0 0 900 900" role="img" aria-label="SimpleVideo.eu">
  <rect width="900" height="900" fill="#003399"/>
  <g fill="#FFCC00">
    <path d="M450 80l11 34h36l-29 21 11 34-29-21-29 21 11-34-29-21h36z"/>
    <path d="M610 122l11 34h36l-29 21 11 34-29-21-29 21 11-34-29-21h36z"/>
    <path d="M728 240l11 34h36l-29 21 11 34-29-21-29 21 11-34-29-21h36z"/>
    <path d="M770 400l11 34h36l-29 21 11 34-29-21-29 21 11-34-29-21h36z"/>
    <path d="M728 560l11 34h36l-29 21 11 34-29-21-29 21 11-34-29-21h36z"/>
    <path d="M610 678l11 34h36l-29 21 11 34-29-21-29 21 11-34-29-21h36z"/>
    <path d="M450 720l11 34h36l-29 21 11 34-29-21-29 21 11-34-29-21h36z"/>
    <path d="M290 678l11 34h36l-29 21 11 34-29-21-29 21 11-34-29-21h36z"/>
    <path d="M172 560l11 34h36l-29 21 11 34-29-21-29 21 11-34-29-21h36z"/>
    <path d="M130 400l11 34h36l-29 21 11 34-29-21-29 21 11-34-29-21h36z"/>
    <path d="M172 240l11 34h36l-29 21 11 34-29-21-29 21 11-34-29-21h36z"/>
    <path d="M290 122l11 34h36l-29 21 11 34-29-21-29 21 11-34-29-21h36z"/>
  </g>
  <path d="M370 325 L595 450 L370 575 Z" fill="#fff"/>
</svg>
