<?xml version="1.0" encoding="utf-8"?>
<!-- Generator: Adobe Illustrator 26.5.0, SVG Export Plug-In . SVG Version: 6.00 Build 0)  -->
<svg version="1.1" id="Ebene_1" xmlns="http://www.w3.org/2000/svg" xmlns:xlink="http://www.w3.org/1999/xlink" x="0px" y="0px"
	 viewBox="0 0 459.1 97.1" style="enable-background:new 0 0 459.1 97.1;" xml:space="preserve">
<style type="text/css">
	.st0{fill:#18355B;}
	.st1{fill:#F6B80C;}
	.st2{enable-background:new    ;}
	.st3{fill:#808080;}
</style>
<path id="path14" class="st0" d="M71.3,3.5c-3.1-5-18-4.2-32.5-0.6c2.6,1.5,4.9,3.4,6.8,5.8c8.1,10.1,6.4,24.9-3.7,32.9
	c-7,5.6-16.5,6.7-24.6,2.9c9.6,15,23.7,30,27.6,29.2C52.1,72.4,77.4,13.3,71.3,3.5"/>
<path class="st1" d="M40.5,12.4c-6.1-7.2-16.8-8.2-24.1-2.2S8.2,27,14.2,34.3s16.8,8.2,24.1,2.2l0,0C45.6,30.4,46.5,19.7,40.5,12.4z
	 M37.2,27c-3.2,2.7-8,2.2-10.7-1s-2.2-8,1-10.7s8-2.2,10.7,1l0,0C40.9,19.5,40.5,24.3,37.2,27z"/>
<path class="st1" d="M125,47.5c0.1,2.4-0.4,4.8-1.5,7c-0.9,1.9-2.3,3.7-4,5c-1.8,1.4-3.8,2.4-5.9,3c-3.9,1.1-8.1,1.3-12.1,0.6
	c-1.3-0.2-2.7-0.6-3.9-1c-1-0.3-1.9-0.8-2.9-1.3c-0.6-0.3-1.2-0.7-1.7-1.2c-0.4-0.4-0.6-0.9-0.7-1.5c-0.2-0.9-0.2-1.8-0.2-2.7
	c0-0.8,0-1.5,0.1-2c0-0.5,0.1-0.9,0.2-1.4c0.1-0.3,0.2-0.5,0.5-0.7c0.2-0.1,0.4-0.2,0.7-0.2c0.6,0.1,1.1,0.3,1.5,0.6
	c0.8,0.5,1.7,1,2.6,1.4c1.2,0.6,2.4,1.1,3.7,1.4c1.6,0.5,3.3,0.7,5,0.6c1.1,0,2.3-0.1,3.3-0.5c0.9-0.3,1.8-0.7,2.5-1.3
	c0.7-0.5,1.2-1.2,1.6-2s0.6-1.8,0.5-2.7c0-1.1-0.3-2.1-0.9-2.9c-0.7-0.9-1.5-1.6-2.4-2.2c-1.1-0.7-2.2-1.3-3.4-1.8
	c-1.3-0.6-2.6-1.2-3.9-1.8c-1.4-0.6-2.7-1.3-3.9-2.1c-1.3-0.8-2.4-1.7-3.4-2.8c-1-1.2-1.9-2.5-2.4-3.9c-0.7-1.7-1-3.6-0.9-5.4
	c0-2.2,0.4-4.4,1.3-6.4c0.8-1.8,2.1-3.3,3.6-4.6c1.6-1.2,3.4-2.2,5.4-2.7c2.1-0.6,4.3-0.9,6.6-0.9c1.2,0,2.4,0.1,3.6,0.3
	c1.1,0.2,2.3,0.4,3.3,0.7c0.9,0.3,1.9,0.6,2.8,1c0.6,0.3,1.1,0.6,1.6,1c0.2,0.2,0.4,0.4,0.5,0.7c0.1,0.2,0.2,0.5,0.2,0.7
	c0.1,0.4,0.1,0.8,0.1,1.1c0,0.5,0,1,0,1.7s0,1.4-0.1,1.9c0,0.4-0.1,0.9-0.2,1.3c-0.1,0.3-0.2,0.5-0.4,0.7c-0.2,0.2-0.4,0.2-0.7,0.2
	c-0.5-0.1-1-0.3-1.4-0.5c-0.6-0.4-1.4-0.8-2.3-1.2c-1-0.5-2.1-0.9-3.2-1.2c-1.3-0.4-2.6-0.5-3.9-0.5c-1,0-2,0.1-2.9,0.4
	c-0.7,0.2-1.4,0.6-2,1.1c-0.5,0.5-1,1.1-1.2,1.7c-0.3,0.7-0.4,1.4-0.4,2.1c0,1,0.3,2.1,0.9,2.9c0.7,0.9,1.5,1.6,2.4,2.2
	c1.1,0.7,2.3,1.3,3.5,1.8c1.3,0.6,2.6,1.2,4,1.8s2.7,1.3,4,2.1s2.4,1.7,3.5,2.8c1,1.2,1.8,2.5,2.4,3.9C124.7,43.8,125,45.6,125,47.5
	z"/>
<path class="st1" d="M185.8,61.2c0,0.2-0.1,0.5-0.2,0.7c-0.2,0.2-0.5,0.4-0.8,0.5c-0.5,0.2-1,0.3-1.5,0.3c-0.6,0.1-1.4,0.1-2.4,0.1
	c-0.8,0-1.6,0-2.4-0.1c-0.5,0-1-0.1-1.5-0.3c-0.3-0.1-0.6-0.2-0.8-0.5c-0.1-0.2-0.2-0.4-0.2-0.7V40.6c0-1.1-0.1-2.1-0.3-3.2
	c-0.2-0.9-0.5-1.7-1-2.5c-0.4-0.7-1-1.2-1.7-1.6c-0.8-0.4-1.6-0.6-2.5-0.6c-1.3,0-2.6,0.5-3.6,1.4c-1.4,1.2-2.8,2.5-3.9,4v23
	c0,0.2-0.1,0.5-0.2,0.7c-0.2,0.2-0.5,0.4-0.8,0.5c-0.5,0.2-1,0.3-1.5,0.3c-0.6,0.1-1.4,0.1-2.3,0.1c-0.8,0-1.6,0-2.4-0.1
	c-0.5,0-1-0.1-1.5-0.3c-0.3-0.1-0.6-0.3-0.8-0.5s-0.2-0.4-0.2-0.7V40.6c0-1.1-0.1-2.1-0.3-3.2c-0.2-0.9-0.5-1.7-1-2.5
	c-0.4-0.7-1-1.2-1.7-1.6c-0.8-0.4-1.6-0.6-2.4-0.6c-1.3,0-2.6,0.5-3.6,1.4c-1.4,1.2-2.7,2.5-3.9,4v23c0,0.2-0.1,0.5-0.2,0.7
	c-0.2,0.2-0.5,0.4-0.8,0.5c-0.5,0.2-1,0.3-1.5,0.3c-0.6,0.1-1.4,0.1-2.4,0.1c-0.8,0-1.6,0-2.4-0.1c-0.5,0-1-0.1-1.5-0.3
	c-0.3-0.1-0.6-0.3-0.8-0.5s-0.2-0.4-0.2-0.7V26.5c0-0.2,0.1-0.5,0.2-0.7c0.2-0.2,0.4-0.4,0.7-0.5c0.4-0.2,0.9-0.2,1.3-0.3
	c0.7-0.1,1.3-0.1,2-0.1s1.4,0,2.1,0.1c0.4,0,0.9,0.1,1.3,0.3c0.3,0.1,0.5,0.3,0.6,0.5s0.2,0.4,0.2,0.7v4c1.6-1.9,3.6-3.4,5.7-4.7
	c1.8-1,3.9-1.6,6-1.6c1.3,0,2.6,0.1,3.9,0.5c1.1,0.3,2.1,0.7,3.1,1.3c0.9,0.5,1.7,1.2,2.4,2s1.2,1.7,1.6,2.6c0.9-1,2-2,3.1-2.9
	c0.9-0.8,1.9-1.4,3-2c0.9-0.5,1.9-0.9,2.9-1.1c1-0.3,2-0.4,3-0.4c2-0.1,4,0.3,5.8,1.2c1.5,0.7,2.8,1.8,3.8,3.2c1,1.4,1.7,3,2.1,4.7
	c0.4,1.9,0.6,3.8,0.6,5.7v22.3L185.8,61.2L185.8,61.2z"/>
<path class="st1" d="M223.4,61.3c0,0.3-0.1,0.7-0.4,0.9c-0.4,0.3-0.8,0.4-1.2,0.5c-0.8,0.1-1.6,0.2-2.5,0.1c-0.9,0-1.7,0-2.6-0.1
	c-0.4,0-0.8-0.2-1.1-0.5c-0.2-0.2-0.3-0.5-0.3-0.9v-2.8c-1.4,1.5-3,2.7-4.9,3.6c-1.9,0.9-4,1.3-6.1,1.3c-1.7,0-3.4-0.2-5.1-0.7
	c-1.5-0.4-2.8-1.2-4-2.1c-1.1-1-2-2.2-2.6-3.5c-0.6-1.6-1-3.2-0.9-4.9c0-1.8,0.4-3.6,1.2-5.3c0.8-1.5,2-2.8,3.5-3.7
	c1.8-1.1,3.8-1.8,5.9-2.2c2.7-0.5,5.4-0.7,8.1-0.7h3.4v-2.1c0-1-0.1-1.9-0.3-2.9c-0.2-0.7-0.6-1.4-1.1-2s-1.2-1-2-1.2
	c-1-0.3-2.1-0.4-3.1-0.4c-1.5,0-3,0.2-4.4,0.5c-1.2,0.3-2.3,0.7-3.4,1.2c-1,0.4-1.8,0.8-2.5,1.2c-0.5,0.3-1,0.5-1.6,0.5
	c-0.3,0-0.5-0.1-0.8-0.3c-0.2-0.2-0.4-0.5-0.5-0.8c-0.2-0.4-0.3-0.8-0.3-1.2c-0.1-0.5-0.1-1.1-0.1-1.6c0-0.6,0-1.3,0.2-1.9
	c0.1-0.5,0.4-0.9,0.7-1.3c0.6-0.5,1.2-0.9,1.9-1.2c1-0.5,2.1-0.9,3.2-1.3c1.3-0.4,2.6-0.7,4-1c1.5-0.3,3-0.4,4.5-0.4
	c2.4,0,4.7,0.2,7,0.8c1.8,0.4,3.4,1.3,4.8,2.5c1.3,1.1,2.2,2.6,2.7,4.3c0.6,2,0.9,4.1,0.9,6.2L223.4,61.3L223.4,61.3z M213.8,46.5
	h-3.7c-1.4,0-2.7,0.1-4.1,0.3c-1,0.2-1.9,0.5-2.7,1c-0.7,0.4-1.2,1-1.5,1.7s-0.5,1.5-0.5,2.3c-0.1,1.3,0.4,2.5,1.4,3.4
	c1.1,0.9,2.4,1.3,3.8,1.2c1.3,0,2.7-0.4,3.8-1c1.3-0.8,2.5-1.9,3.5-3.1V46.5L213.8,46.5z"/>
<path class="st1" d="M253.9,29.7c0,0.9,0,1.7-0.1,2.3c0,0.5-0.1,0.9-0.2,1.4c-0.1,0.3-0.2,0.5-0.4,0.7c-0.2,0.1-0.4,0.2-0.6,0.2
	c-0.2,0-0.5-0.1-0.7-0.1l-0.9-0.3c-0.3-0.1-0.7-0.2-1.1-0.3c-0.4-0.1-0.8-0.1-1.3-0.1c-0.6,0-1.1,0.1-1.6,0.3
	c-0.6,0.2-1.2,0.6-1.7,1c-0.7,0.6-1.3,1.2-1.8,1.9c-0.7,0.9-1.4,1.9-2,2.9v21.7c0,0.2-0.1,0.5-0.2,0.7c-0.2,0.2-0.5,0.4-0.8,0.5
	c-0.5,0.2-1,0.3-1.5,0.3c-0.6,0.1-1.4,0.1-2.4,0.1c-0.8,0-1.6,0-2.4-0.1c-0.5,0-1-0.1-1.5-0.3c-0.3-0.1-0.6-0.3-0.8-0.5
	s-0.2-0.4-0.2-0.7V26.5c0-0.2,0.1-0.5,0.2-0.7c0.2-0.2,0.4-0.4,0.7-0.5c0.4-0.2,0.9-0.2,1.3-0.3c0.7-0.1,1.3-0.1,2-0.1
	s1.4,0,2.1,0.1c0.4,0,0.9,0.1,1.3,0.3c0.3,0.1,0.5,0.3,0.6,0.5s0.2,0.4,0.2,0.7v4.3c0.8-1.1,1.6-2.2,2.6-3.2c0.7-0.7,1.5-1.4,2.3-2
	c0.7-0.5,1.4-0.8,2.2-1c0.7-0.2,1.4-0.3,2.2-0.3c0.4,0,0.7,0,1.1,0.1c0.4,0,0.8,0.1,1.2,0.2s0.7,0.2,1.1,0.3
	c0.2,0.1,0.5,0.2,0.7,0.4c0.1,0.1,0.2,0.3,0.3,0.4c0.1,0.2,0.1,0.4,0.2,0.6c0.1,0.4,0.1,0.8,0.1,1.2
	C253.9,28.1,253.9,28.8,253.9,29.7z"/>
<path class="st1" d="M282.5,57.8c0,0.9,0,1.8-0.2,2.6c-0.1,0.5-0.3,0.9-0.6,1.3c-0.3,0.3-0.6,0.5-1,0.7c-0.5,0.2-1.1,0.4-1.6,0.5
	c-0.7,0.1-1.3,0.3-2,0.3c-0.7,0.1-1.4,0.1-2.2,0.1c-1.7,0-3.4-0.2-5.1-0.7c-1.4-0.4-2.6-1.2-3.5-2.3c-1-1.1-1.7-2.4-2.1-3.9
	c-0.5-1.8-0.7-3.7-0.7-5.5V33.1h-4.2c-0.5,0-1-0.4-1.1-0.9c-0.3-1-0.4-2-0.4-3.1c0-0.6,0-1.3,0.1-1.9c0-0.4,0.1-0.8,0.3-1.2
	c0.1-0.3,0.3-0.5,0.5-0.6s0.4-0.2,0.7-0.2h4.1v-7.7c0-0.2,0.1-0.5,0.2-0.7c0.2-0.3,0.5-0.4,0.8-0.5c0.5-0.2,1-0.3,1.5-0.3
	c0.6-0.1,1.4-0.1,2.4-0.1c0.8,0,1.6,0,2.4,0.1c0.5,0,1,0.1,1.5,0.3c0.3,0.1,0.6,0.3,0.8,0.5c0.2,0.2,0.2,0.4,0.2,0.7v7.8h7.6
	c0.2,0,0.5,0.1,0.7,0.2c0.2,0.2,0.4,0.4,0.5,0.6c0.2,0.4,0.3,0.8,0.3,1.2c0.1,0.6,0.1,1.3,0.1,1.9c0.1,1-0.1,2.1-0.4,3.1
	c-0.1,0.5-0.6,0.9-1.1,0.9h-7.6v16.3c-0.1,1.5,0.2,2.9,0.9,4.3c0.7,1,1.9,1.6,3.2,1.4c0.5,0,0.9,0,1.4-0.1c0.4-0.1,0.7-0.2,1.1-0.3
	l0.8-0.3c0.2-0.1,0.4-0.1,0.6-0.1s0.3,0.1,0.5,0.1c0.2,0.1,0.3,0.3,0.3,0.5c0.1,0.4,0.2,0.7,0.2,1.1
	C282.5,56.5,282.5,57.1,282.5,57.8z"/>
<path class="st0" d="M347.3,61.2c0,0.2-0.1,0.5-0.2,0.7c-0.2,0.3-0.5,0.4-0.8,0.5c-0.5,0.2-1,0.3-1.5,0.3c-1.6,0.2-3.1,0.2-4.7,0
	c-0.5-0.1-1-0.2-1.5-0.3c-0.3-0.1-0.6-0.3-0.8-0.5c-0.2-0.2-0.2-0.4-0.2-0.7v-41h-0.1l-14.6,41c-0.1,0.3-0.3,0.6-0.5,0.8
	c-0.3,0.2-0.6,0.4-1,0.5c-0.5,0.1-1,0.2-1.5,0.2c-0.6,0-1.4,0.1-2.3,0.1c-0.8,0-1.5,0-2.3-0.1c-0.5,0-1-0.2-1.5-0.3
	c-0.4-0.1-0.7-0.3-1-0.5c-0.2-0.2-0.4-0.5-0.5-0.7l-14-41h-0.1v41c0,0.2-0.1,0.5-0.2,0.7c-0.2,0.3-0.5,0.4-0.8,0.5
	c-0.5,0.1-1,0.3-1.5,0.3c-0.8,0.1-1.6,0.1-2.4,0.1s-1.6,0-2.3-0.1c-0.5-0.1-1-0.2-1.5-0.3c-0.3-0.1-0.6-0.3-0.8-0.5
	c-0.1-0.2-0.2-0.5-0.2-0.7V16.3c-0.1-1.1,0.3-2.2,1-3c0.7-0.7,1.8-1.1,2.8-1.1h6.7c1,0,2.1,0.1,3.1,0.3c0.8,0.2,1.6,0.5,2.2,1
	s1.2,1,1.6,1.7c0.5,0.9,0.8,1.8,1.1,2.8l11,30h0.2l11.2-30c0.3-1,0.7-1.9,1.1-2.8c0.4-0.7,0.8-1.3,1.4-1.8c0.5-0.5,1.2-0.8,1.9-1
	c0.8-0.2,1.7-0.3,2.5-0.3h6.9c0.6,0,1.2,0.1,1.8,0.3c0.5,0.2,0.9,0.4,1.2,0.8c0.3,0.4,0.6,0.8,0.7,1.3c0.2,0.6,0.3,1.1,0.2,1.7v45
	H347.3z"/>
<path class="st0" d="M385.7,61.3c0,0.3-0.1,0.7-0.4,0.9c-0.4,0.3-0.8,0.4-1.2,0.5c-0.8,0.1-1.6,0.2-2.5,0.1c-0.9,0-1.7,0-2.5-0.1
	c-0.4,0-0.8-0.2-1.1-0.5c-0.2-0.2-0.3-0.5-0.3-0.9v-2.8c-1.4,1.5-3,2.7-4.9,3.6c-1.9,0.9-4,1.3-6.1,1.3c-1.7,0-3.4-0.2-5.1-0.7
	c-1.5-0.4-2.8-1.2-4-2.1c-1.1-1-2-2.2-2.6-3.5c-0.6-1.6-1-3.2-0.9-4.9c0-1.8,0.4-3.6,1.2-5.3c0.8-1.5,2-2.8,3.5-3.7
	c1.8-1.1,3.8-1.8,5.8-2.2c2.7-0.5,5.4-0.7,8.1-0.7h3.4v-2.1c0-1-0.1-1.9-0.3-2.9c-0.2-0.7-0.6-1.4-1.1-2s-1.2-1-2-1.2
	c-1-0.3-2.1-0.4-3.1-0.4c-1.5,0-3,0.2-4.4,0.5c-1.2,0.3-2.3,0.7-3.4,1.2c-1,0.4-1.8,0.8-2.5,1.2c-0.5,0.3-1,0.5-1.6,0.5
	c-0.3,0-0.5-0.1-0.8-0.3c-0.2-0.2-0.4-0.5-0.5-0.8c-0.2-0.4-0.3-0.8-0.3-1.2c-0.1-0.5-0.1-1.1-0.1-1.6c0-0.6,0-1.3,0.2-1.9
	c0.1-0.5,0.4-0.9,0.7-1.3c0.6-0.5,1.2-0.9,1.9-1.2c1-0.5,2.1-0.9,3.2-1.3c1.3-0.4,2.6-0.7,4-1c1.5-0.3,3-0.4,4.5-0.4
	c2.4,0,4.7,0.2,7,0.8c1.8,0.4,3.4,1.3,4.8,2.5c1.3,1.1,2.2,2.6,2.7,4.3c0.6,2,0.9,4.1,0.9,6.2L385.7,61.3L385.7,61.3z M376.1,46.5
	h-3.7c-1.4,0-2.7,0.1-4,0.3c-1,0.2-1.9,0.5-2.7,1c-0.6,0.4-1.2,1-1.5,1.7s-0.5,1.5-0.5,2.3c-0.1,1.3,0.4,2.5,1.4,3.4
	c1.1,0.9,2.4,1.3,3.8,1.2c1.3,0,2.7-0.4,3.8-1c1.3-0.8,2.5-1.9,3.5-3.1L376.1,46.5L376.1,46.5z"/>
<path class="st0" d="M428.8,43.4c0,2.8-0.3,5.6-1,8.3c-0.6,2.3-1.5,4.4-2.9,6.3c-1.2,1.7-2.9,3.1-4.8,4c-2,1-4.3,1.4-6.5,1.4
	c-0.9,0-1.9-0.1-2.8-0.3s-1.7-0.5-2.5-0.9s-1.6-0.9-2.4-1.5c-0.8-0.7-1.6-1.4-2.4-2.1V75c0,0.3-0.1,0.5-0.2,0.7
	c-0.2,0.2-0.5,0.4-0.8,0.5c-0.5,0.2-1,0.3-1.5,0.3c-1.6,0.2-3.2,0.2-4.7,0c-0.5-0.1-1-0.2-1.5-0.3c-0.3-0.1-0.6-0.3-0.8-0.5
	c-0.2-0.2-0.2-0.4-0.2-0.7V26.5c0-0.2,0.1-0.5,0.2-0.7c0.2-0.2,0.4-0.4,0.7-0.5c0.4-0.2,0.8-0.2,1.3-0.3c0.7-0.1,1.3-0.1,2-0.1
	s1.3,0,2,0.1c0.4,0,0.9,0.1,1.3,0.3c0.3,0.1,0.5,0.3,0.7,0.5c0.1,0.2,0.2,0.4,0.2,0.7v4.1c0.9-1,1.9-1.9,3-2.7c0.9-0.8,1.9-1.4,3-2
	c1-0.5,2-0.9,3.1-1.2c1.1-0.3,2.3-0.4,3.4-0.4c2.3-0.1,4.5,0.4,6.5,1.5c1.8,1,3.3,2.4,4.4,4.1c1.2,1.9,2,3.9,2.4,6.1
	C428.5,38.4,428.8,40.9,428.8,43.4z M418.6,44.1c0-1.4-0.1-2.9-0.3-4.3c-0.2-1.3-0.6-2.5-1.1-3.6c-0.5-1-1.2-1.9-2.1-2.5
	c-0.9-0.7-2.1-1-3.2-1c-0.7,0-1.3,0.1-1.9,0.3c-0.7,0.2-1.3,0.5-2,1s-1.4,1.1-2,1.7c-0.8,0.8-1.5,1.7-2.2,2.6v11.5
	c1.1,1.5,2.5,2.8,3.9,4c1.1,0.9,2.5,1.4,3.9,1.4c1.2,0,2.3-0.3,3.2-1c0.9-0.7,1.7-1.5,2.2-2.5c0.6-1.1,1-2.3,1.2-3.5
	C418.5,46.7,418.6,45.4,418.6,44.1L418.6,44.1z"/>
<path class="st0" d="M459.1,51.4c0,1.8-0.3,3.6-1.1,5.2c-0.7,1.5-1.8,2.8-3.1,3.8c-1.4,1.1-3.1,1.8-4.8,2.3c-2,0.5-4,0.8-6,0.8
	c-1.2,0-2.5-0.1-3.7-0.3c-1.1-0.2-2.1-0.4-3.2-0.7c-0.8-0.2-1.6-0.6-2.3-0.9c-0.5-0.2-1-0.5-1.4-0.9c-0.3-0.4-0.6-0.8-0.7-1.3
	c-0.2-0.9-0.3-1.7-0.2-2.6c0-0.6,0-1.2,0.1-1.8c0-0.4,0.1-0.7,0.2-1.1c0.1-0.2,0.2-0.4,0.4-0.5c0.2-0.1,0.4-0.1,0.6-0.1
	c0.5,0.1,0.9,0.2,1.3,0.5c0.6,0.3,1.2,0.7,2.1,1.1c0.9,0.4,1.9,0.8,2.9,1.1c1.2,0.4,2.5,0.5,3.8,0.5c0.8,0,1.6-0.1,2.4-0.3
	c0.6-0.2,1.2-0.4,1.8-0.8c0.5-0.3,0.9-0.8,1.1-1.3c0.3-0.6,0.4-1.2,0.4-1.8c0-0.7-0.2-1.4-0.7-2s-1.2-1.1-1.9-1.5
	c-0.9-0.4-1.8-0.8-2.7-1.2c-1-0.4-2-0.8-3.1-1.2s-2.1-0.9-3.1-1.5s-1.9-1.3-2.7-2.1c-0.8-0.9-1.5-1.9-1.9-3
	c-0.5-1.3-0.8-2.8-0.7-4.2c0-1.6,0.3-3.1,1-4.6c0.6-1.4,1.6-2.6,2.8-3.6c1.3-1,2.8-1.8,4.5-2.3c1.9-0.6,3.9-0.8,5.9-0.8
	c1.1,0,2.1,0.1,3.2,0.2c0.9,0.1,1.9,0.3,2.8,0.6c0.7,0.2,1.4,0.4,2.1,0.8c0.4,0.2,0.8,0.4,1.2,0.7c0.2,0.2,0.4,0.4,0.5,0.6
	s0.2,0.5,0.2,0.7c0,0.3,0.1,0.6,0.1,1s0.1,0.9,0.1,1.5s0,1.3-0.1,1.7c0,0.4-0.1,0.7-0.2,1c-0.1,0.2-0.2,0.4-0.4,0.5
	c-0.2,0.1-0.4,0.1-0.5,0.1c-0.4-0.1-0.8-0.2-1.1-0.4c-0.5-0.3-1.1-0.6-1.9-0.9c-0.8-0.3-1.7-0.6-2.6-0.9c-1.1-0.3-2.2-0.4-3.3-0.4
	c-0.8,0-1.5,0.1-2.3,0.3c-0.6,0.1-1.1,0.4-1.6,0.8c-0.4,0.3-0.7,0.7-0.9,1.2c-0.2,0.5-0.3,1-0.3,1.5c0,0.7,0.2,1.5,0.7,2
	c0.6,0.6,1.2,1.1,2,1.4c0.9,0.5,1.8,0.8,2.7,1.2c1,0.4,2.1,0.8,3.1,1.2c1.1,0.4,2.1,0.9,3.1,1.5s1.9,1.3,2.7,2.1
	c0.8,0.9,1.5,1.9,2,3C458.9,48.6,459.1,50,459.1,51.4z"/>
<path class="st1" d="M30.3,67.8c-0.8-0.8-1.5-1.6-2.3-2.5c-8,0.5-14.3,1.2-17.1,1.9c-1.7,0.4-3.4,1-5.1,1.8l31.6,5.4
	C34.9,72.4,32.5,70.2,30.3,67.8z"/>
<path class="st1" d="M9.4,88.2c9.6,9,17,10.9,26.2,7.1c7.6-3.1,18.8-8.2,28-12.8l-32.8-5.6L9.4,88.2z"/>
<path class="st1" d="M48.3,76.3l3.3,0.6l22-11.6c-5.2-0.4-11-0.7-16.9-0.7C53,71.7,50.2,74.9,48.3,76.3z"/>
<path class="st1" d="M68.8,79.9c2.8-1.4,5.1-2.7,6.9-3.8c6.3-3.8,13.1-8.1,4.1-10L57.4,77.9L68.8,79.9z"/>
<path class="st1" d="M1.6,71.9c-2.1,2.2-2.4,5.2,0.8,8.9c1.5,1.7,3,3.3,4.4,4.8L25.1,76L1.6,71.9z"/>
<g>
	<g class="st2">
		<path class="st3" d="M104.4,82c0,1.9-0.4,3.5-1.3,4.7s-2.1,1.8-3.6,1.8c-1.5,0-2.8-0.5-3.6-1.5V93h-2.2V75.5h2l0.1,1.4
			c0.9-1.1,2.1-1.6,3.7-1.6c1.5,0,2.7,0.6,3.6,1.7s1.3,2.7,1.3,4.8V82z M102.2,81.7c0-1.4-0.3-2.6-0.9-3.4s-1.4-1.2-2.5-1.2
			c-1.3,0-2.3,0.6-3,1.7v6.1c0.6,1.2,1.6,1.7,3,1.7c1,0,1.9-0.4,2.5-1.2S102.2,83.3,102.2,81.7z"/>
		<path class="st3" d="M106.6,81.7c0-1.2,0.2-2.4,0.7-3.4s1.2-1.8,2-2.3s1.9-0.8,3-0.8c1.7,0,3.1,0.6,4.2,1.8s1.6,2.8,1.6,4.8V82
			c0,1.2-0.2,2.3-0.7,3.3s-1.1,1.7-2,2.3s-1.9,0.8-3,0.8c-1.7,0-3.1-0.6-4.2-1.8s-1.6-2.8-1.6-4.7V81.7z M108.8,82
			c0,1.4,0.3,2.5,1,3.4s1.5,1.3,2.6,1.3c1.1,0,2-0.4,2.6-1.3s1-2.1,1-3.6c0-1.4-0.3-2.5-1-3.4s-1.5-1.3-2.6-1.3
			c-1.1,0-1.9,0.4-2.6,1.3S108.8,80.4,108.8,82z"/>
		<path class="st3" d="M132.1,85.2l2.4-9.7h2.2L133,88.2h-1.8l-3.1-9.6l-3,9.6h-1.8l-3.7-12.7h2.2l2.5,9.5l3-9.5h1.7L132.1,85.2z"/>
		<path class="st3" d="M144.2,88.4c-1.7,0-3.1-0.6-4.2-1.7s-1.6-2.6-1.6-4.5v-0.4c0-1.3,0.2-2.4,0.7-3.4s1.2-1.8,2-2.3
			s1.8-0.8,2.8-0.8c1.6,0,2.9,0.5,3.8,1.6s1.4,2.6,1.4,4.7v0.9h-8.6c0,1.2,0.4,2.3,1.1,3s1.6,1.2,2.7,1.2c0.8,0,1.4-0.2,1.9-0.5
			s1-0.7,1.4-1.2l1.3,1C147.9,87.6,146.3,88.4,144.2,88.4z M143.9,77c-0.9,0-1.6,0.3-2.2,1s-1,1.5-1.1,2.7h6.4v-0.2
			c-0.1-1.1-0.4-2-0.9-2.6S144.8,77,143.9,77z"/>
		<path class="st3" d="M157.7,77.4c-0.3-0.1-0.7-0.1-1.1-0.1c-1.4,0-2.4,0.6-2.9,1.8v9h-2.2V75.5h2.1l0,1.5c0.7-1.1,1.7-1.7,3-1.7
			c0.4,0,0.7,0.1,1,0.2V77.4z"/>
		<path class="st3" d="M164.8,88.4c-1.7,0-3.1-0.6-4.2-1.7s-1.6-2.6-1.6-4.5v-0.4c0-1.3,0.2-2.4,0.7-3.4s1.2-1.8,2-2.3
			s1.8-0.8,2.8-0.8c1.6,0,2.9,0.5,3.8,1.6s1.4,2.6,1.4,4.7v0.9h-8.6c0,1.2,0.4,2.3,1.1,3s1.6,1.2,2.7,1.2c0.8,0,1.4-0.2,1.9-0.5
			s1-0.7,1.4-1.2l1.3,1C168.5,87.6,166.9,88.4,164.8,88.4z M164.5,77c-0.9,0-1.6,0.3-2.2,1s-1,1.5-1.1,2.7h6.4v-0.2
			c-0.1-1.1-0.4-2-0.9-2.6S165.4,77,164.5,77z"/>
		<path class="st3" d="M171.7,81.7c0-1.9,0.5-3.5,1.4-4.7s2.1-1.8,3.6-1.8c1.5,0,2.7,0.5,3.5,1.5v-6.6h2.2v18h-2l-0.1-1.4
			c-0.9,1.1-2.1,1.6-3.6,1.6c-1.5,0-2.7-0.6-3.6-1.8s-1.4-2.8-1.4-4.7V81.7z M173.9,82c0,1.4,0.3,2.6,0.9,3.4s1.4,1.2,2.5,1.2
			c1.4,0,2.4-0.6,3-1.9v-5.8c-0.6-1.2-1.6-1.8-3-1.8c-1.1,0-1.9,0.4-2.5,1.2S173.9,80.4,173.9,82z"/>
		<path class="st3" d="M202.4,82c0,1.9-0.4,3.5-1.3,4.7s-2.1,1.8-3.6,1.8c-1.6,0-2.8-0.6-3.7-1.7l-0.1,1.5h-2v-18h2.2v6.7
			c0.9-1.1,2.1-1.6,3.6-1.6s2.7,0.6,3.6,1.7s1.3,2.8,1.3,4.8V82z M200.3,81.7c0-1.5-0.3-2.6-0.9-3.4s-1.4-1.2-2.5-1.2
			c-1.4,0-2.5,0.7-3.1,2v5.5c0.7,1.3,1.7,2,3.1,2c1,0,1.8-0.4,2.4-1.2S200.3,83.3,200.3,81.7z"/>
		<path class="st3" d="M209.2,85l3-9.5h2.3l-5.1,14.6c-0.8,2.1-2,3.2-3.8,3.2l-0.4,0l-0.8-0.2v-1.8l0.6,0c0.7,0,1.3-0.1,1.7-0.4
			s0.7-0.8,1-1.6l0.5-1.3l-4.5-12.5h2.4L209.2,85z"/>
		<path class="st3" d="M227.9,79.7l4.5-8.6h2.6L229,81.8v6.4h-2.2v-6.4l-5.9-10.7h2.6L227.9,79.7z"/>
		<path class="st3" d="M241.2,88.4c-1.7,0-3.1-0.6-4.2-1.7s-1.6-2.6-1.6-4.5v-0.4c0-1.3,0.2-2.4,0.7-3.4s1.2-1.8,2-2.3
			s1.8-0.8,2.8-0.8c1.6,0,2.9,0.5,3.8,1.6s1.4,2.6,1.4,4.7v0.9h-8.6c0,1.2,0.4,2.3,1.1,3s1.6,1.2,2.7,1.2c0.8,0,1.4-0.2,1.9-0.5
			s1-0.7,1.4-1.2l1.3,1C245,87.6,243.4,88.4,241.2,88.4z M241,77c-0.9,0-1.6,0.3-2.2,1s-1,1.5-1.1,2.7h6.4v-0.2
			c-0.1-1.1-0.4-2-0.9-2.6S241.9,77,241,77z"/>
		<path class="st3" d="M251.1,88.2h-2.2v-18h2.2V88.2z"/>
		<path class="st3" d="M256.9,88.2h-2.2v-18h2.2V88.2z"/>
		<path class="st3" d="M259.8,81.7c0-1.2,0.2-2.4,0.7-3.4s1.2-1.8,2-2.3s1.9-0.8,3-0.8c1.7,0,3.1,0.6,4.2,1.8s1.6,2.8,1.6,4.8V82
			c0,1.2-0.2,2.3-0.7,3.3s-1.1,1.7-2,2.3s-1.9,0.8-3,0.8c-1.7,0-3.1-0.6-4.2-1.8s-1.6-2.8-1.6-4.7V81.7z M262,82
			c0,1.4,0.3,2.5,1,3.4s1.5,1.3,2.6,1.3c1.1,0,2-0.4,2.6-1.3s1-2.1,1-3.6c0-1.4-0.3-2.5-1-3.4s-1.5-1.3-2.6-1.3
			c-1.1,0-1.9,0.4-2.6,1.3S262,80.4,262,82z"/>
		<path class="st3" d="M285.3,85.2l2.4-9.7h2.2l-3.7,12.7h-1.8l-3.1-9.6l-3,9.6h-1.8l-3.7-12.7h2.2l2.5,9.5l3-9.5h1.7L285.3,85.2z"
			/>
		<path class="st3" d="M295.3,71.1l5.6,13.9l5.6-13.9h2.9v17.1h-2.2v-6.6l0.2-7.2l-5.6,13.8H300l-5.6-13.8l0.2,7.1v6.6h-2.2V71.1
			H295.3z"/>
		<path class="st3" d="M320.9,88.2c-0.1-0.2-0.2-0.7-0.3-1.3c-1,1-2.2,1.6-3.6,1.6c-1.2,0-2.3-0.4-3.1-1.1s-1.2-1.6-1.2-2.7
			c0-1.3,0.5-2.3,1.5-3.1s2.4-1.1,4.2-1.1h2.1v-1c0-0.8-0.2-1.4-0.7-1.8s-1.1-0.7-2-0.7c-0.8,0-1.4,0.2-1.9,0.6s-0.8,0.9-0.8,1.4
			h-2.2c0-0.6,0.2-1.2,0.7-1.8s1.1-1.1,1.8-1.4s1.6-0.5,2.5-0.5c1.5,0,2.6,0.4,3.4,1.1s1.3,1.7,1.3,3v5.8c0,1.2,0.1,2.1,0.4,2.8v0.2
			H320.9z M317.3,86.5c0.7,0,1.3-0.2,1.9-0.5s1.1-0.8,1.3-1.4V82h-1.7c-2.7,0-4,0.8-4,2.3c0,0.7,0.2,1.2,0.7,1.6
			S316.5,86.5,317.3,86.5z"/>
		<path class="st3" d="M336.8,82c0,1.9-0.4,3.5-1.3,4.7s-2.1,1.8-3.6,1.8c-1.5,0-2.8-0.5-3.6-1.5V93h-2.2V75.5h2l0.1,1.4
			c0.9-1.1,2.1-1.6,3.7-1.6c1.5,0,2.7,0.6,3.6,1.7s1.3,2.7,1.3,4.8V82z M334.6,81.7c0-1.4-0.3-2.6-0.9-3.4s-1.4-1.2-2.5-1.2
			c-1.3,0-2.3,0.6-3,1.7v6.1c0.6,1.2,1.6,1.7,3,1.7c1,0,1.9-0.4,2.5-1.2S334.6,83.3,334.6,81.7z"/>
	</g>
</g>
</svg>
