<svg width="131" height="36" viewBox="0 0 131 36" fill="none" xmlns="http://www.w3.org/2000/svg">
<path d="M9.85255 12.6703L19.0866 17.9981L24.594 14.8172C25.1828 14.4725 25.3838 13.7186 25.0464 13.1298C24.9387 12.9431 24.7807 12.7851 24.594 12.6774L9.85255 4.16861C9.26376 3.82395 8.50981 4.025 8.16515 4.6138C8.05744 4.80049 8 5.0159 8 5.2385V13.7401C8 13.058 8.55289 12.5051 9.23504 12.5051C9.45045 12.5051 9.66586 12.5625 9.85255 12.6703Z" fill="#1961AC"/>
<path d="M24.594 21.1786L19.0866 18.0049L9.85255 23.3328C9.26376 23.6774 8.50981 23.4692 8.16515 22.8804C8.05744 22.6937 8 22.4783 8 22.2629V30.7645C8 31.4467 8.55289 31.9996 9.23504 31.9996C9.45045 31.9996 9.66586 31.9421 9.85255 31.8344L24.594 23.3256C25.1828 22.9809 25.3838 22.227 25.0464 21.6382C24.9387 21.4515 24.7879 21.2935 24.594 21.1786Z" fill="#1961AC"/>
<path d="M9.85255 23.3332L19.0866 18.0053L9.85255 12.6774C9.26376 12.3327 8.50981 12.5338 8.16515 13.1226C8.05744 13.3093 8 13.5247 8 13.7473V22.2705C8 22.9526 8.55289 23.5055 9.23504 23.5055C9.45045 23.4983 9.66586 23.4409 9.85255 23.3332Z" fill="#112953"/>
<path d="M41.592 14.2986C39.8974 14.2986 38.528 15.1033 37.7388 16.3445V10.0459H35.209V25.701H37.7388V23.8848C38.528 25.1265 39.8974 25.9537 41.615 25.9537C44.7948 25.9537 47.0696 23.4018 47.0696 20.1147C47.0696 16.8271 44.7948 14.2986 41.592 14.2986ZM41.1046 23.4942C39.1546 23.4942 37.7388 21.9538 37.7388 20.1147C37.7388 18.2526 39.1546 16.7586 41.1046 16.7586C43.0312 16.7586 44.4466 18.2526 44.4466 20.1147C44.4466 21.9538 43.0308 23.4942 41.1046 23.4942ZM49.2976 10.0459H51.8274V25.701H49.2976V10.0459ZM61.878 14.5288H64.3844V25.6775H61.8776V24.1146C61.274 25.172 60.2528 25.9307 58.6978 25.9307C56.2144 25.9307 54.613 24.0916 54.613 21.6321V14.5288H57.1428V20.9423C57.1428 22.4593 58.0248 23.4712 59.51 23.4712C60.9262 23.4712 61.8312 22.5287 61.9005 21.0806V14.5284H61.8776L61.878 14.5288ZM72.2296 14.299C68.98 14.299 66.566 16.8045 66.566 20.1147C66.566 23.5402 69.0493 25.9537 72.3688 25.9537C74.063 25.9537 75.5252 25.4712 76.5004 24.9422V22.4368C75.5252 23.1261 74.04 23.655 72.5544 23.655C70.7205 23.655 69.3746 22.5517 69.1192 20.9423H77.4283C77.5211 20.6206 77.591 20.1147 77.591 19.6781C77.591 16.7351 75.4558 14.2986 72.2296 14.2986V14.299ZM69.0962 19.0113C69.2584 17.5632 70.512 16.3909 72.2062 16.3909C73.8544 16.3909 75.1076 17.4479 75.1535 19.0113H69.0962ZM84.9952 14.2986C85.8772 14.2986 87.0146 14.5284 87.6876 14.9194V17.5862C87.0376 17.1032 86.1092 16.7356 84.9952 16.7356C83.0686 16.7356 81.6298 18.2526 81.6298 20.1147C81.6298 21.9768 83.0686 23.4942 84.9952 23.4942C86.0857 23.4942 87.061 23.1261 87.6876 22.6436V25.2869C86.9912 25.701 85.8772 25.9537 84.9952 25.9537C81.4901 25.9537 79.0766 23.4018 79.0766 20.1147C79.0532 16.8271 81.4901 14.2986 84.9952 14.2986ZM95.1611 14.2986C91.8422 14.2986 89.289 16.8041 89.289 20.1147C89.289 23.3789 91.8187 25.9537 95.1611 25.9537C98.4572 25.9537 101.034 23.4018 101.034 20.1147C101.01 16.8271 98.4572 14.2986 95.1611 14.2986ZM95.1611 23.4942C93.2809 23.4942 91.8422 21.9768 91.8422 20.1147C91.8422 18.2526 93.2809 16.7356 95.1611 16.7356C97.0643 16.7356 98.4572 18.2526 98.4572 20.1147C98.4572 21.9768 97.0414 23.4942 95.1611 23.4942ZM111.873 16.3445C111.037 15.0807 109.691 14.2986 108.02 14.2986C104.794 14.2986 102.519 16.8041 102.519 20.1147C102.519 23.3789 104.793 25.9537 107.997 25.9537C109.668 25.9537 111.037 25.1495 111.873 23.8848V25.701H114.379V10.0459H111.873V16.3445ZM108.507 23.4942C106.58 23.4942 105.142 21.9538 105.142 20.1147C105.142 18.2526 106.581 16.7586 108.507 16.7586C110.434 16.7586 111.873 18.2526 111.873 20.1147C111.873 21.9538 110.434 23.4942 108.507 23.4942ZM127.563 19.6781C127.563 16.7351 125.428 14.2986 122.201 14.2986C118.952 14.2986 116.538 16.8041 116.538 20.1147C116.538 23.5402 119.021 25.9537 122.341 25.9537C124.035 25.9537 125.497 25.4712 126.472 24.9422V22.4368C125.497 23.1261 124.012 23.655 122.526 23.655C120.692 23.655 119.346 22.5517 119.091 20.9423H127.4C127.493 20.6436 127.563 20.1147 127.563 19.6781ZM119.068 19.0113C119.23 17.5632 120.484 16.3909 122.178 16.3909C123.826 16.3909 125.079 17.4479 125.125 19.0113H119.068Z" fill="#112953"/>
</svg>
